<?xml version="1.0" standalone="no"?>
<!DOCTYPE svg PUBLIC "-//W3C//DTD SVG 20010904//EN"
 "http://www.w3.org/TR/2001/REC-SVG-20010904/DTD/svg10.dtd">
<svg version="1.0" xmlns="http://www.w3.org/2000/svg"
 width="65.000000pt" height="65.000000pt" viewBox="0 0 65.000000 65.000000"
 preserveAspectRatio="xMidYMid meet">

<g transform="translate(0.000000,65.000000) scale(0.100000,-0.100000)"
fill="#000000" stroke="none">
<path d="M180 512 c0 -48 23 -97 41 -87 16 11 10 67 -12 101 -11 19 -23 34
-25 34 -2 0 -4 -21 -4 -48z m40 -30 c0 -7 -4 -11 -9 -8 -5 4 -12 0 -14 -6 -3
-7 -6 5 -6 27 0 37 1 39 14 21 8 -11 15 -26 15 -34z"/>
<path d="M340 530 c70 -13 127 -53 157 -109 13 -24 23 -37 23 -29 0 24 -55 93
-93 117 -21 13 -58 24 -89 26 l-53 4 55 -9z"/>
<path d="M246 521 c-4 -5 3 -7 14 -4 23 6 26 13 6 13 -8 0 -17 -4 -20 -9z"/>
<path d="M315 488 c-35 -21 -85 -71 -85 -86 0 -12 -5 -10 -23 6 -26 25 -47 29
-47 9 0 -20 30 -57 45 -57 8 0 18 -7 23 -17 13 -22 42 -9 41 19 0 22 -1 22 -9
3 -5 -11 -9 -14 -9 -7 -1 7 -5 10 -11 7 -14 -8 -13 8 2 41 l13 27 6 -24 c6
-23 7 -22 14 9 15 67 90 93 141 48 80 -68 -17 -187 -106 -130 l-25 16 24 -21
c60 -54 165 14 145 94 -14 56 -90 91 -139 63z m-121 -93 c-4 -8 -7 -15 -9 -15
-2 0 -5 7 -9 15 -3 9 0 15 9 15 9 0 12 -6 9 -15z"/>
<path d="M148 448 c-8 -13 -18 -34 -21 -48 l-7 -25 13 26 c6 14 18 34 26 43 8
9 12 19 9 22 -3 2 -12 -6 -20 -18z"/>
<path d="M342 453 c5 -26 38 -29 38 -4 0 15 -6 21 -21 21 -14 0 -19 -5 -17
-17z"/>
<path d="M301 416 c-9 -10 -8 -16 4 -26 19 -16 41 1 32 24 -8 20 -21 20 -36 2z"/>
<path d="M391 416 c-8 -10 -8 -16 2 -24 17 -14 42 2 34 22 -8 20 -21 20 -36 2z"/>
<path d="M342 363 c5 -26 38 -29 38 -4 0 15 -6 21 -21 21 -14 0 -19 -5 -17
-17z"/>
<path d="M110 326 c0 -86 48 -161 125 -197 138 -64 299 45 293 198 l-1 48 -4
-41 -4 -42 -83 -3 c-75 -4 -88 -7 -128 -36 l-45 -32 3 52 c1 29 0 39 -2 24
l-5 -28 -22 32 c-12 18 -28 34 -35 37 -19 6 22 -74 41 -81 17 -7 11 -51 -9
-68 -12 -9 -14 -4 -14 28 0 46 -28 93 -77 131 l-33 25 0 -47z m73 -34 c16 -21
27 -48 27 -66 0 -24 -3 -27 -10 -16 -5 8 -10 29 -10 45 0 21 -3 26 -9 16 -7
-11 -13 -6 -26 18 -9 18 -19 30 -22 27 -3 -3 2 -17 11 -31 12 -18 13 -25 4
-25 -7 0 -3 -8 8 -18 28 -22 62 -86 42 -80 -29 10 -71 86 -76 138 -4 49 -4 51
14 40 11 -7 31 -28 47 -48z m51 2 c3 -8 2 -12 -4 -9 -6 3 -10 10 -10 16 0 14
7 11 14 -7z m156 -23 c0 -5 -12 -12 -26 -15 -15 -4 -53 -32 -85 -63 -33 -31
-59 -52 -59 -47 0 14 91 100 125 117 35 19 45 20 45 8z m120 0 c0 -8 -90 -3
-99 5 -2 2 19 4 47 4 29 0 52 -4 52 -9z m-120 -25 c0 -2 -20 -16 -44 -30 -25
-14 -55 -40 -67 -58 -13 -17 -25 -26 -27 -20 -4 14 31 53 78 86 31 23 60 33
60 22z m88 -3 c-16 -2 -40 -2 -55 0 -16 2 -3 4 27 4 30 0 43 -2 28 -4z m-33
-22 c3 -6 -14 -12 -37 -14 -41 -3 -41 -4 10 -5 66 -2 69 -22 3 -22 -41 0 -54
-5 -82 -31 -18 -17 -35 -26 -37 -21 -2 6 -11 8 -20 5 -12 -5 -11 1 7 20 13 14
28 24 35 21 6 -2 16 6 21 18 13 29 86 50 100 29z m42 -7 c-3 -3 -12 -4 -19 -1
-8 3 -5 6 6 6 11 1 17 -2 13 -5z m-57 -59 c-7 -8 -19 -15 -26 -15 -8 0 -11 6
-8 15 4 8 15 15 26 15 17 0 18 -3 8 -15z m-50 -9 c0 -8 -7 -17 -16 -20 -30
-11 -37 -6 -19 14 21 23 35 26 35 6z"/>
</g>
</svg>
